<svg width="6550" height="200" fill="transparent" stroke="#000000" version="1.1" xmlns="http://www.w3.org/2000/svg"><line stroke-linecap="round" stroke-width="10" stroke="#deeed6" x2="25" y2="100" y1="50" x1="75" /><line stroke-linecap="round" stroke-width="10" stroke="#deeed6" x2="75" y2="100" y1="100" x1="25" /><line stroke-linecap="round" stroke-width="10" stroke="#deeed6" x2="75" y2="150" y1="100" x1="25" /><line stroke-linecap="round" stroke-width="10" stroke="#deeed6" x2="125" y2="100" y1="50" x1="75" /><line stroke-linecap="round" stroke-width="10" stroke="#deeed6" x2="75" y2="100" y1="100" x1="125" /><line stroke-linecap="round" stroke-width="10" stroke="#deeed6" x2="175" y2="100" y1="100" x1="225" /><line stroke-linecap="round" stroke-width="10" stroke="#deeed6" x2="175" y2="150" y1="100" x1="175" /><line stroke-linecap="round" stroke-width="10" stroke="#deeed6" x2="225" y2="150" y1="150" x1="175" /><line stroke-linecap="round" stroke-width="10" stroke="#deeed6" x2="225" y2="100" y1="50" x1="275" /><line stroke-linecap="round" stroke-width="10" stroke="#deeed6" x2="325" y2="100" y1="50" x1="275" /><line stroke-linecap="round" stroke-width="10" stroke="#deeed6" x2="275" y2="150" y1="100" x1="325" /><line stroke-linecap="round" stroke-width="10" stroke="#deeed6" x2="375" y2="50" y1="50" x1="325" /><line stroke-linecap="round" stroke-width="10" stroke="#deeed6" x2="325" y2="100" y1="50" x1="375" /><line stroke-linecap="round" stroke-width="10" stroke="#deeed6" x2="375" y2="100" y1="50" x1="375" /><line stroke-linecap="round" stroke-width="10" stroke="#deeed6" x2="425" y2="50" y1="50" x1="475" /><line stroke-linecap="round" stroke-width="10" stroke="#deeed6" x2="475" y2="100" y1="50" x1="425" /><line stroke-linecap="round" stroke-width="10" stroke="#deeed6" x2="425" y2="100" y1="50" x1="425" /><line stroke-linecap="round" stroke-width="10" stroke="#deeed6" x2="525" y2="50" y1="50" x1="475" /><line stroke-linecap="round" stroke-width="10" stroke="#deeed6" x2="475" y2="100" y1="50" x1="525" /><line stroke-linecap="round" stroke-width="10" stroke="#deeed6" x2="525" y2="100" y1="50" x1="525" /><line stroke-linecap="round" stroke-width="10" stroke="#deeed6" x2="525" y2="100" y1="100" x1="475" /><line stroke-linecap="round" stroke-width="10" stroke="#deeed6" x2="525" y2="150" y1="100" x1="525" /><line stroke-linecap="round" stroke-width="10" stroke="#deeed6" x2="575" y2="100" y1="50" x1="525" /><line stroke-linecap="round" stroke-width="10" stroke="#deeed6" x2="525" y2="100" y1="50" x1="525" /><line stroke-linecap="round" stroke-width="10" stroke="#deeed6" x2="525" y2="100" y1="100" x1="575" /><line stroke-linecap="round" stroke-width="10" stroke="#deeed6" x2="525" y2="150" y1="100" x1="575" /><line stroke-linecap="round" stroke-width="10" stroke="#deeed6" x2="575" y2="100" y1="50" x1="625" /><line stroke-linecap="round" stroke-width="10" stroke="#deeed6" x2="625" y2="100" y1="100" x1="575" /><line stroke-linecap="round" stroke-width="10" stroke="#deeed6" x2="625" y2="150" y1="100" x1="575" /><line stroke-linecap="round" stroke-width="10" stroke="#deeed6" x2="825" y2="100" y1="50" x1="775" /><line stroke-linecap="round" stroke-width="10" stroke="#deeed6" x2="775" y2="100" y1="100" x1="825" /><line stroke-linecap="round" stroke-width="10" stroke="#deeed6" x2="775" y2="150" y1="100" x1="825" /><line stroke-linecap="round" stroke-width="10" stroke="#deeed6" x2="875" y2="150" y1="100" x1="825" /><line stroke-linecap="round" stroke-width="10" stroke="#deeed6" x2="875" y2="150" y1="100" x1="875" /><line stroke-linecap="round" stroke-width="10" stroke="#deeed6" x2="925" y2="100" y1="50" x1="875" /><line stroke-linecap="round" stroke-width="10" stroke="#deeed6" x2="875" y2="100" y1="50" x1="875" /><line stroke-linecap="round" stroke-width="10" stroke="#deeed6" x2="875" y2="150" y1="100" x1="875" /><line stroke-linecap="round" stroke-width="10" stroke="#deeed6" x2="1025" y2="100" y1="50" x1="975" /><line stroke-linecap="round" stroke-width="10" stroke="#deeed6" x2="975" y2="100" y1="50" x1="975" /><line stroke-linecap="round" stroke-width="10" stroke="#deeed6" x2="975" y2="150" y1="100" x1="975" /><line stroke-linecap="round" stroke-width="10" stroke="#deeed6" x2="1025" y2="100" y1="50" x1="1075" /><line stroke-linecap="round" stroke-width="10" stroke="#deeed6" x2="1075" y2="100" y1="50" x1="1075" /><line stroke-linecap="round" stroke-width="10" stroke="#deeed6" x2="1075" y2="100" y1="100" x1="1025" /><line stroke-linecap="round" stroke-width="10" stroke="#deeed6" x2="1075" y2="150" y1="100" x1="1075" /><line stroke-linecap="round" stroke-width="10" stroke="#deeed6" x2="1125" y2="100" y1="50" x1="1075" /><line stroke-linecap="round" stroke-width="10" stroke="#deeed6" x2="1075" y2="100" y1="50" x1="1075" /><line stroke-linecap="round" stroke-width="10" stroke="#deeed6" x2="1075" y2="100" y1="100" x1="1125" /><line stroke-linecap="round" stroke-width="10" stroke="#deeed6" x2="1075" y2="150" y1="100" x1="1125" /><line stroke-linecap="round" stroke-width="10" stroke="#deeed6" x2="1175" y2="50" y1="50" x1="1225" /><line stroke-linecap="round" stroke-width="10" stroke="#deeed6" x2="1175" y2="100" y1="50" x1="1175" /><line stroke-linecap="round" stroke-width="10" stroke="#deeed6" x2="1175" y2="100" y1="100" x1="1225" /><line stroke-linecap="round" stroke-width="10" stroke="#deeed6" x2="1225" y2="100" y1="50" x1="1275" /><line stroke-linecap="round" stroke-width="10" stroke="#deeed6" x2="1275" y2="100" y1="100" x1="1225" /><line stroke-linecap="round" stroke-width="10" stroke="#deeed6" x2="1275" y2="150" y1="100" x1="1225" /><line stroke-linecap="round" stroke-width="10" stroke="#deeed6" x2="1325" y2="100" y1="50" x1="1275" /><line stroke-linecap="round" stroke-width="10" stroke="#deeed6" x2="1275" y2="100" y1="100" x1="1325" /><line stroke-linecap="round" stroke-width="10" stroke="#deeed6" x2="1375" y2="100" y1="50" x1="1375" /><line stroke-linecap="round" stroke-width="10" stroke="#deeed6" x2="1375" y2="150" y1="100" x1="1375" /><line stroke-linecap="round" stroke-width="10" stroke="#deeed6" x2="1575" y2="150" y1="100" x1="1525" /><line stroke-linecap="round" stroke-width="10" stroke="#deeed6" x2="1575" y2="150" y1="100" x1="1625" /><line stroke-linecap="round" stroke-width="10" stroke="#deeed6" x2="1675" y2="50" y1="50" x1="1725" /><line stroke-linecap="round" stroke-width="10" stroke="#deeed6" x2="1725" y2="100" y1="50" x1="1675" /><line stroke-linecap="round" stroke-width="10" stroke="#deeed6" x2="1675" y2="100" y1="50" x1="1675" /><line stroke-linecap="round" stroke-width="10" stroke="#deeed6" x2="1725" y2="100" y1="50" x1="1775" /><line stroke-linecap="round" stroke-width="10" stroke="#deeed6" x2="1775" y2="150" y1="100" x1="1725" /><line stroke-linecap="round" stroke-width="10" stroke="#deeed6" x2="1825" y2="100" y1="50" x1="1775" /><line stroke-linecap="round" stroke-width="10" stroke="#deeed6" x2="1775" y2="150" y1="100" x1="1825" /><line stroke-linecap="round" stroke-width="10" stroke="#deeed6" x2="1925" y2="100" y1="50" x1="1875" /><line stroke-linecap="round" stroke-width="10" stroke="#deeed6" x2="1875" y2="100" y1="100" x1="1925" /><line stroke-linecap="round" stroke-width="10" stroke="#deeed6" x2="1875" y2="150" y1="100" x1="1875" /><line stroke-linecap="round" stroke-width="10" stroke="#deeed6" x2="1925" y2="100" y1="50" x1="1975" /><line stroke-linecap="round" stroke-width="10" stroke="#deeed6" x2="1975" y2="100" y1="50" x1="1975" /><line stroke-linecap="round" stroke-width="10" stroke="#deeed6" x2="1975" y2="150" y1="100" x1="1975" /><line stroke-linecap="round" stroke-width="10" stroke="#deeed6" x2="2025" y2="100" y1="50" x1="1975" /><line stroke-linecap="round" stroke-width="10" stroke="#deeed6" x2="1975" y2="100" y1="50" x1="1975" /><line stroke-linecap="round" stroke-width="10" stroke="#deeed6" x2="1975" y2="100" y1="100" x1="2025" /><line stroke-linecap="round" stroke-width="10" stroke="#deeed6" x2="1975" y2="150" y1="100" x1="1975" /><line stroke-linecap="round" stroke-width="10" stroke="#deeed6" x2="2075" y2="100" y1="50" x1="2075" /><line stroke-linecap="round" stroke-width="10" stroke="#deeed6" x2="2075" y2="150" y1="100" x1="2075" /><line stroke-linecap="round" stroke-width="10" stroke="#deeed6" x2="2275" y2="150" y1="100" x1="2225" /><line stroke-linecap="round" stroke-width="10" stroke="#deeed6" x2="2275" y2="150" y1="100" x1="2325" /><line stroke-linecap="round" stroke-width="10" stroke="#deeed6" x2="2375" y2="50" y1="50" x1="2325" /><line stroke-linecap="round" stroke-width="10" stroke="#deeed6" x2="2375" y2="100" y1="50" x1="2375" /><line stroke-linecap="round" stroke-width="10" stroke="#deeed6" x2="2375" y2="100" y1="100" x1="2325" /><line stroke-linecap="round" stroke-width="10" stroke="#deeed6" x2="2425" y2="50" y1="50" x1="2475" /><line stroke-linecap="round" stroke-width="10" stroke="#deeed6" x2="2425" y2="100" y1="50" x1="2425" /><line stroke-linecap="round" stroke-width="10" stroke="#deeed6" x2="2425" y2="100" y1="100" x1="2475" /><line stroke-linecap="round" stroke-width="10" stroke="#deeed6" x2="2475" y2="100" y1="50" x1="2525" /><line stroke-linecap="round" stroke-width="10" stroke="#deeed6" x2="2525" y2="100" y1="50" x1="2525" /><line stroke-linecap="round" stroke-width="10" stroke="#deeed6" x2="2525" y2="100" y1="100" x1="2475" /><line stroke-linecap="round" stroke-width="10" stroke="#deeed6" x2="2525" y2="150" y1="100" x1="2475" /><line stroke-linecap="round" stroke-width="10" stroke="#deeed6" x2="2575" y2="100" y1="50" x1="2525" /><line stroke-linecap="round" stroke-width="10" stroke="#deeed6" x2="2525" y2="100" y1="50" x1="2525" /><line stroke-linecap="round" stroke-width="10" stroke="#deeed6" x2="2525" y2="100" y1="100" x1="2575" /><line stroke-linecap="round" stroke-width="10" stroke="#deeed6" x2="2525" y2="150" y1="100" x1="2575" /><line stroke-linecap="round" stroke-width="10" stroke="#deeed6" x2="2575" y2="100" y1="50" x1="2625" /><line stroke-linecap="round" stroke-width="10" stroke="#deeed6" x2="2625" y2="100" y1="100" x1="2575" /><line stroke-linecap="round" stroke-width="10" stroke="#deeed6" x2="2625" y2="150" y1="100" x1="2575" /><line stroke-linecap="round" stroke-width="10" stroke="#deeed6" x2="2725" y2="100" y1="50" x1="2675" /><line stroke-linecap="round" stroke-width="10" stroke="#deeed6" x2="2675" y2="100" y1="100" x1="2725" /><line stroke-linecap="round" stroke-width="10" stroke="#deeed6" x2="2675" y2="150" y1="100" x1="2725" /><line stroke-linecap="round" stroke-width="10" stroke="#deeed6" x2="2725" y2="100" y1="50" x1="2775" /><line stroke-linecap="round" stroke-width="10" stroke="#deeed6" x2="2825" y2="100" y1="50" x1="2775" /><line stroke-linecap="round" stroke-width="10" stroke="#deeed6" x2="2775" y2="150" y1="100" x1="2825" /><line stroke-linecap="round" stroke-width="10" stroke="#deeed6" x2="2875" y2="50" y1="50" x1="2925" /><line stroke-linecap="round" stroke-width="10" stroke="#deeed6" x2="2925" y2="100" y1="50" x1="2875" /><line stroke-linecap="round" stroke-width="10" stroke="#deeed6" x2="2875" y2="100" y1="50" x1="2875" /><line stroke-linecap="round" stroke-width="10" stroke="#deeed6" x2="2925" y2="100" y1="50" x1="2975" /><line stroke-linecap="round" stroke-width="10" stroke="#deeed6" x2="2975" y2="100" y1="100" x1="2925" /><line stroke-linecap="round" stroke-width="10" stroke="#deeed6" x2="2975" y2="150" y1="100" x1="2925" /><line stroke-linecap="round" stroke-width="10" stroke="#deeed6" x2="3025" y2="100" y1="50" x1="2975" /><line stroke-linecap="round" stroke-width="10" stroke="#deeed6" x2="2975" y2="100" y1="100" x1="3025" /><line stroke-linecap="round" stroke-width="10" stroke="#deeed6" x2="3075" y2="100" y1="100" x1="3025" /><line stroke-linecap="round" stroke-width="10" stroke="#deeed6" x2="3075" y2="150" y1="100" x1="3075" /><line stroke-linecap="round" stroke-width="10" stroke="#deeed6" x2="3025" y2="150" y1="150" x1="3075" /><line stroke-linecap="round" stroke-width="10" stroke="#deeed6" x2="3225" y2="100" y1="100" x1="3275" /><line stroke-linecap="round" stroke-width="10" stroke="#deeed6" x2="3225" y2="150" y1="100" x1="3225" /><line stroke-linecap="round" stroke-width="10" stroke="#deeed6" x2="3275" y2="150" y1="150" x1="3225" /><line stroke-linecap="round" stroke-width="10" stroke="#deeed6" x2="3275" y2="100" y1="50" x1="3325" /><line stroke-linecap="round" stroke-width="10" stroke="#deeed6" x2="3325" y2="100" y1="50" x1="3325" /><line stroke-linecap="round" stroke-width="10" stroke="#deeed6" x2="3325" y2="100" y1="100" x1="3275" /><line stroke-linecap="round" stroke-width="10" stroke="#deeed6" x2="3325" y2="150" y1="100" x1="3325" /><line stroke-linecap="round" stroke-width="10" stroke="#deeed6" x2="3375" y2="100" y1="50" x1="3325" /><line stroke-linecap="round" stroke-width="10" stroke="#deeed6" x2="3325" y2="100" y1="50" x1="3325" /><line stroke-linecap="round" stroke-width="10" stroke="#deeed6" x2="3325" y2="100" y1="100" x1="3375" /><line stroke-linecap="round" stroke-width="10" stroke="#deeed6" x2="3325" y2="150" y1="100" x1="3325" /><line stroke-linecap="round" stroke-width="10" stroke="#deeed6" x2="3425" y2="100" y1="50" x1="3425" /><line stroke-linecap="round" stroke-width="10" stroke="#deeed6" x2="3425" y2="100" y1="100" x1="3475" /><line stroke-linecap="round" stroke-width="10" stroke="#deeed6" x2="3425" y2="150" y1="100" x1="3475" /><line stroke-linecap="round" stroke-width="10" stroke="#deeed6" x2="3475" y2="100" y1="50" x1="3525" /><line stroke-linecap="round" stroke-width="10" stroke="#deeed6" x2="3525" y2="100" y1="100" x1="3475" /><line stroke-linecap="round" stroke-width="10" stroke="#deeed6" x2="3575" y2="100" y1="50" x1="3525" /><line stroke-linecap="round" stroke-width="10" stroke="#deeed6" x2="3525" y2="100" y1="100" x1="3575" /><line stroke-linecap="round" stroke-width="10" stroke="#deeed6" x2="3525" y2="150" y1="100" x1="3575" /><line stroke-linecap="round" stroke-width="10" stroke="#deeed6" x2="3625" y2="100" y1="50" x1="3625" /><line stroke-linecap="round" stroke-width="10" stroke="#deeed6" x2="3625" y2="150" y1="100" x1="3625" /><line stroke-linecap="round" stroke-width="10" stroke="#deeed6" x2="3675" y2="100" y1="50" x1="3725" /><line stroke-linecap="round" stroke-width="10" stroke="#deeed6" x2="3725" y2="150" y1="100" x1="3675" /><line stroke-linecap="round" stroke-width="10" stroke="#deeed6" x2="3775" y2="100" y1="50" x1="3725" /><line stroke-linecap="round" stroke-width="10" stroke="#deeed6" x2="3725" y2="150" y1="100" x1="3775" /><line stroke-linecap="round" stroke-width="10" stroke="#deeed6" x2="3875" y2="100" y1="50" x1="3825" /><line stroke-linecap="round" stroke-width="10" stroke="#deeed6" x2="3825" y2="100" y1="100" x1="3875" /><line stroke-linecap="round" stroke-width="10" stroke="#deeed6" x2="3825" y2="150" y1="100" x1="3875" /><line stroke-linecap="round" stroke-width="10" stroke="#deeed6" x2="3875" y2="100" y1="50" x1="3925" /><line stroke-linecap="round" stroke-width="10" stroke="#deeed6" x2="3925" y2="100" y1="100" x1="3875" /><line stroke-linecap="round" stroke-width="10" stroke="#deeed6" x2="3975" y2="100" y1="50" x1="3925" /><line stroke-linecap="round" stroke-width="10" stroke="#deeed6" x2="3925" y2="100" y1="100" x1="3975" /><line stroke-linecap="round" stroke-width="10" stroke="#deeed6" x2="3925" y2="150" y1="100" x1="3975" /><line stroke-linecap="round" stroke-width="10" stroke="#deeed6" x2="4025" y2="50" y1="50" x1="4075" /><line stroke-linecap="round" stroke-width="10" stroke="#deeed6" x2="4025" y2="100" y1="50" x1="4025" /><line stroke-linecap="round" stroke-width="10" stroke="#deeed6" x2="4025" y2="100" y1="100" x1="4075" /><line stroke-linecap="round" stroke-width="10" stroke="#deeed6" x2="4075" y2="100" y1="50" x1="4125" /><line stroke-linecap="round" stroke-width="10" stroke="#deeed6" x2="4175" y2="100" y1="50" x1="4125" /><line stroke-linecap="round" stroke-width="10" stroke="#deeed6" x2="4125" y2="150" y1="100" x1="4175" /><line stroke-linecap="round" stroke-width="10" stroke="#deeed6" x2="4225" y2="50" y1="50" x1="4175" /><line stroke-linecap="round" stroke-width="10" stroke="#deeed6" x2="4225" y2="100" y1="50" x1="4225" /><line stroke-linecap="round" stroke-width="10" stroke="#deeed6" x2="4225" y2="100" y1="100" x1="4175" /><line stroke-linecap="round" stroke-width="10" stroke="#deeed6" x2="4225" y2="150" y1="100" x1="4175" /><line stroke-linecap="round" stroke-width="10" stroke="#deeed6" x2="4175" y2="150" y1="150" x1="4225" /><line stroke-linecap="round" stroke-width="10" stroke="#deeed6" x2="4375" y2="100" y1="50" x1="4425" /><line stroke-linecap="round" stroke-width="10" stroke="#deeed6" x2="4425" y2="150" y1="100" x1="4375" /><line stroke-linecap="round" stroke-width="10" stroke="#deeed6" x2="4475" y2="100" y1="50" x1="4425" /><line stroke-linecap="round" stroke-width="10" stroke="#deeed6" x2="4425" y2="150" y1="100" x1="4475" /><line stroke-linecap="round" stroke-width="10" stroke="#deeed6" x2="4525" y2="50" y1="50" x1="4575" /><line stroke-linecap="round" stroke-width="10" stroke="#deeed6" x2="4525" y2="100" y1="50" x1="4525" /><line stroke-linecap="round" stroke-width="10" stroke="#deeed6" x2="4525" y2="100" y1="100" x1="4575" /><line stroke-linecap="round" stroke-width="10" stroke="#deeed6" x2="4575" y2="100" y1="50" x1="4625" /><line stroke-linecap="round" stroke-width="10" stroke="#deeed6" x2="4625" y2="150" y1="100" x1="4575" /><line stroke-linecap="round" stroke-width="10" stroke="#deeed6" x2="4675" y2="100" y1="50" x1="4625" /><line stroke-linecap="round" stroke-width="10" stroke="#deeed6" x2="4625" y2="150" y1="100" x1="4675" /><line stroke-linecap="round" stroke-width="10" stroke="#deeed6" x2="4725" y2="50" y1="50" x1="4675" /><line stroke-linecap="round" stroke-width="10" stroke="#deeed6" x2="4675" y2="100" y1="50" x1="4725" /><line stroke-linecap="round" stroke-width="10" stroke="#deeed6" x2="4725" y2="100" y1="50" x1="4725" /><line stroke-linecap="round" stroke-width="10" stroke="#deeed6" x2="4775" y2="50" y1="50" x1="4825" /><line stroke-linecap="round" stroke-width="10" stroke="#deeed6" x2="4825" y2="100" y1="50" x1="4775" /><line stroke-linecap="round" stroke-width="10" stroke="#deeed6" x2="4775" y2="100" y1="50" x1="4775" /><line stroke-linecap="round" stroke-width="10" stroke="#deeed6" x2="4825" y2="100" y1="50" x1="4875" /><line stroke-linecap="round" stroke-width="10" stroke="#deeed6" x2="4875" y2="100" y1="50" x1="4875" /><line stroke-linecap="round" stroke-width="10" stroke="#deeed6" x2="4875" y2="100" y1="100" x1="4825" /><line stroke-linecap="round" stroke-width="10" stroke="#deeed6" x2="4875" y2="150" y1="100" x1="4875" /><line stroke-linecap="round" stroke-width="10" stroke="#deeed6" x2="4925" y2="100" y1="50" x1="4875" /><line stroke-linecap="round" stroke-width="10" stroke="#deeed6" x2="4875" y2="100" y1="50" x1="4875" /><line stroke-linecap="round" stroke-width="10" stroke="#deeed6" x2="4875" y2="100" y1="100" x1="4925" /><line stroke-linecap="round" stroke-width="10" stroke="#deeed6" x2="4875" y2="150" y1="100" x1="4875" /><line stroke-linecap="round" stroke-width="10" stroke="#deeed6" x2="4975" y2="50" y1="50" x1="5025" /><line stroke-linecap="round" stroke-width="10" stroke="#deeed6" x2="5025" y2="100" y1="50" x1="4975" /><line stroke-linecap="round" stroke-width="10" stroke="#deeed6" x2="4975" y2="100" y1="50" x1="4975" /><line stroke-linecap="round" stroke-width="10" stroke="#deeed6" x2="5075" y2="150" y1="100" x1="5025" /><line stroke-linecap="round" stroke-width="10" stroke="#deeed6" x2="5075" y2="150" y1="100" x1="5125" /><line stroke-linecap="round" stroke-width="10" stroke="#deeed6" x2="5125" y2="100" y1="50" x1="5175" /><line stroke-linecap="round" stroke-width="10" stroke="#deeed6" x2="5175" y2="100" y1="50" x1="5175" /><line stroke-linecap="round" stroke-width="10" stroke="#deeed6" x2="5175" y2="150" y1="100" x1="5175" /><line stroke-linecap="round" stroke-width="10" stroke="#deeed6" x2="5275" y2="100" y1="50" x1="5225" /><line stroke-linecap="round" stroke-width="10" stroke="#deeed6" x2="5225" y2="100" y1="50" x1="5225" /><line stroke-linecap="round" stroke-width="10" stroke="#deeed6" x2="5225" y2="150" y1="100" x1="5225" /><line stroke-linecap="round" stroke-width="10" stroke="#deeed6" x2="5275" y2="100" y1="50" x1="5325" /><line stroke-linecap="round" stroke-width="10" stroke="#deeed6" x2="5325" y2="100" y1="50" x1="5325" /><line stroke-linecap="round" stroke-width="10" stroke="#deeed6" x2="5325" y2="100" y1="100" x1="5275" /><line stroke-linecap="round" stroke-width="10" stroke="#deeed6" x2="5325" y2="150" y1="100" x1="5275" /><line stroke-linecap="round" stroke-width="10" stroke="#deeed6" x2="5375" y2="100" y1="50" x1="5325" /><line stroke-linecap="round" stroke-width="10" stroke="#deeed6" x2="5325" y2="100" y1="50" x1="5325" /><line stroke-linecap="round" stroke-width="10" stroke="#deeed6" x2="5325" y2="100" y1="100" x1="5375" /><line stroke-linecap="round" stroke-width="10" stroke="#deeed6" x2="5325" y2="150" y1="100" x1="5375" /><line stroke-linecap="round" stroke-width="10" stroke="#deeed6" x2="5425" y2="50" y1="50" x1="5375" /><line stroke-linecap="round" stroke-width="10" stroke="#deeed6" x2="5375" y2="100" y1="50" x1="5425" /><line stroke-linecap="round" stroke-width="10" stroke="#deeed6" x2="5425" y2="100" y1="50" x1="5425" /><line stroke-linecap="round" stroke-width="10" stroke="#deeed6" x2="5625" y2="100" y1="50" x1="5575" /><line stroke-linecap="round" stroke-width="10" stroke="#deeed6" x2="5575" y2="100" y1="100" x1="5625" /><line stroke-linecap="round" stroke-width="10" stroke="#deeed6" x2="5575" y2="150" y1="100" x1="5625" /><line stroke-linecap="round" stroke-width="10" stroke="#deeed6" x2="5625" y2="100" y1="50" x1="5675" /><line stroke-linecap="round" stroke-width="10" stroke="#deeed6" x2="5675" y2="100" y1="100" x1="5625" /><line stroke-linecap="round" stroke-width="10" stroke="#deeed6" x2="5675" y2="150" y1="100" x1="5625" /><line stroke-linecap="round" stroke-width="10" stroke="#deeed6" x2="5725" y2="100" y1="50" x1="5675" /><line stroke-linecap="round" stroke-width="10" stroke="#deeed6" x2="5675" y2="100" y1="100" x1="5725" /><line stroke-linecap="round" stroke-width="10" stroke="#deeed6" x2="5775" y2="50" y1="50" x1="5825" /><line stroke-linecap="round" stroke-width="10" stroke="#deeed6" x2="5825" y2="100" y1="50" x1="5775" /><line stroke-linecap="round" stroke-width="10" stroke="#deeed6" x2="5775" y2="100" y1="50" x1="5775" /><line stroke-linecap="round" stroke-width="10" stroke="#deeed6" x2="5875" y2="50" y1="50" x1="5825" /><line stroke-linecap="round" stroke-width="10" stroke="#deeed6" x2="5825" y2="100" y1="50" x1="5875" /><line stroke-linecap="round" stroke-width="10" stroke="#deeed6" x2="5875" y2="100" y1="100" x1="5825" /><line stroke-linecap="round" stroke-width="10" stroke="#deeed6" x2="5875" y2="50" y1="50" x1="5925" /><line stroke-linecap="round" stroke-width="10" stroke="#deeed6" x2="5925" y2="100" y1="50" x1="5875" /><line stroke-linecap="round" stroke-width="10" stroke="#deeed6" x2="5875" y2="100" y1="100" x1="5925" /><line stroke-linecap="round" stroke-width="10" stroke="#deeed6" x2="5875" y2="150" y1="100" x1="5925" /><line stroke-linecap="round" stroke-width="10" stroke="#deeed6" x2="5975" y2="100" y1="50" x1="5975" /><line stroke-linecap="round" stroke-width="10" stroke="#deeed6" x2="5975" y2="100" y1="100" x1="5925" /><line stroke-linecap="round" stroke-width="10" stroke="#deeed6" x2="5975" y2="150" y1="100" x1="5925" /><line stroke-linecap="round" stroke-width="10" stroke="#deeed6" x2="6025" y2="100" y1="50" x1="6025" /><line stroke-linecap="round" stroke-width="10" stroke="#deeed6" x2="6025" y2="100" y1="100" x1="6075" /><line stroke-linecap="round" stroke-width="10" stroke="#deeed6" x2="6025" y2="150" y1="100" x1="6075" /><line stroke-linecap="round" stroke-width="10" stroke="#deeed6" x2="6075" y2="100" y1="50" x1="6125" /><line stroke-linecap="round" stroke-width="10" stroke="#deeed6" x2="6125" y2="100" y1="100" x1="6075" /><line stroke-linecap="round" stroke-width="10" stroke="#deeed6" x2="6125" y2="150" y1="100" x1="6075" /><line stroke-linecap="round" stroke-width="10" stroke="#deeed6" x2="6175" y2="100" y1="50" x1="6125" /><line stroke-linecap="round" stroke-width="10" stroke="#deeed6" x2="6125" y2="100" y1="100" x1="6175" /><line stroke-linecap="round" stroke-width="10" stroke="#deeed6" x2="6175" y2="100" y1="50" x1="6225" /><line stroke-linecap="round" stroke-width="10" stroke="#deeed6" x2="6225" y2="100" y1="50" x1="6225" /><line stroke-linecap="round" stroke-width="10" stroke="#deeed6" x2="6225" y2="150" y1="100" x1="6175" /><line stroke-linecap="round" stroke-width="10" stroke="#deeed6" x2="6325" y2="100" y1="50" x1="6275" /><line stroke-linecap="round" stroke-width="10" stroke="#deeed6" x2="6275" y2="100" y1="50" x1="6275" /><line stroke-linecap="round" stroke-width="10" stroke="#deeed6" x2="6275" y2="150" y1="100" x1="6325" /><line stroke-linecap="round" stroke-width="10" stroke="#deeed6" x2="6325" y2="100" y1="50" x1="6375" /><line stroke-linecap="round" stroke-width="10" stroke="#deeed6" x2="6375" y2="100" y1="100" x1="6325" /><line stroke-linecap="round" stroke-width="10" stroke="#deeed6" x2="6375" y2="150" y1="100" x1="6325" /><line stroke-linecap="round" stroke-width="10" stroke="#deeed6" x2="6425" y2="100" y1="50" x1="6375" /><line stroke-linecap="round" stroke-width="10" stroke="#deeed6" x2="6375" y2="100" y1="100" x1="6425" /><line stroke-linecap="round" stroke-width="10" stroke="#deeed6" x2="6475" y2="50" y1="50" x1="6425" /><line stroke-linecap="round" stroke-width="10" stroke="#deeed6" x2="6425" y2="100" y1="50" x1="6475" /><line stroke-linecap="round" stroke-width="10" stroke="#deeed6" x2="6475" y2="100" y1="50" x1="6475" /></svg>
